<svg class="" fill="none" height="19" viewBox="0 0 60 19" width="60" xmlns="http://www.w3.org/2000/svg"><path class="" d="M10.1934 3.4054H12.9961V5.25922H13.1059C13.4842 3.94454 14.4442 3.25195 15.6076 3.25195C15.9005 3.25195 16.2584 3.29343 16.5188 3.35563V5.96839C16.2462 5.87715 15.6971 5.8108 15.2984 5.8108C14.0211 5.8108 13.0856 6.71075 13.0856 8.01713V14.0265H10.1934V3.4054Z" fill="#171717"></path><path class="" d="M16.8438 11.0644C16.8438 8.69216 18.6946 7.98713 20.757 7.79221C22.5671 7.61388 23.279 7.52264 23.279 6.83835V6.79688C23.279 5.92596 22.7176 5.41999 21.7332 5.41999C20.6959 5.41999 20.0776 5.9384 19.8824 6.64343L17.2099 6.42363C17.6085 4.48687 19.2519 3.26758 21.7495 3.26758C24.0681 3.26758 26.1712 4.33342 26.1712 6.86323V14.0297H23.4295V12.5574H23.3481C22.8397 13.5486 21.8431 14.2329 20.3014 14.2329C18.3163 14.2287 16.8438 13.167 16.8438 11.0644ZM23.2993 10.2308V9.10274C22.9536 9.33913 21.9204 9.48843 21.2898 9.57967C20.2729 9.72483 19.6017 10.1313 19.6017 10.9648C19.6017 11.7736 20.2404 12.1966 21.1271 12.1966C22.4004 12.1966 23.2993 11.3464 23.2993 10.2308Z" fill="#171717"></path><path class="" d="M27.7012 3.42226H30.5486V5.20557H30.6788C31.0652 4.34294 31.8991 3.28125 33.6442 3.28125C35.9303 3.28125 37.8625 5.09359 37.8625 8.74731C37.8625 12.3015 36.0117 14.2175 33.6361 14.2175C31.952 14.2175 31.0774 13.2263 30.6788 12.343H30.5893V18.0288H27.7012V3.42226ZM32.7208 11.8743C34.1405 11.8743 34.9134 10.5887 34.9134 8.73487C34.9134 6.89349 34.1527 5.62859 32.7208 5.62859C31.3174 5.62859 30.5283 6.83958 30.5283 8.73487C30.5283 10.6302 31.3296 11.8743 32.7208 11.8743Z" fill="#171717"></path><path class="" d="M38.9121 3.42226H41.7636V5.20557H41.8938C42.2802 4.34294 43.1141 3.28125 44.8592 3.28125C47.1453 3.28125 49.0775 5.09359 49.0775 8.74731C49.0775 12.3015 47.2267 14.2175 44.8511 14.2175C43.167 14.2175 42.2924 13.2263 41.8938 12.343H41.8043V18.0288H38.9121V3.42226ZM43.9318 11.8743C45.3514 11.8743 46.1243 10.5887 46.1243 8.73487C46.1243 6.89349 45.3636 5.62859 43.9318 5.62859C42.5284 5.62859 41.7392 6.83958 41.7392 8.73487C41.7392 10.6302 42.5446 11.8743 43.9318 11.8743Z" fill="#171717"></path><path class="" d="M50.0469 8.78439C50.0469 5.50393 52.036 3.28516 55.1031 3.28516C57.857 3.28516 60.0008 5.06847 60.0008 8.68071V9.48942H52.9025V9.49772C52.9025 11.082 53.8177 12.0566 55.2618 12.0566C56.2258 12.0566 56.9702 11.6335 57.2631 10.8248L59.9357 11.0032C59.5289 12.9731 57.7919 14.2546 55.213 14.2546C52.0075 14.2546 50.0469 12.1519 50.0469 8.78439ZM57.2794 7.66464C57.2713 6.39973 56.4048 5.48734 55.1479 5.48734C53.8665 5.48734 52.9635 6.45779 52.9025 7.66464H57.2794Z" fill="#171717"></path><path class="" d="M0 0V2.46761H2.93694H8.59117H9.20134V0H0Z" fill="#171717"></path><path class="" d="M0 6.29492V14.0295H2.93694V8.76667H8.59117V6.29492H2.93694H0Z" fill="#171717"></path></svg>
