<svg width="153" height="28" viewBox="0 0 153 28" fill="none" xmlns="http://www.w3.org/2000/svg">
<path d="M0 8C0 3.58172 3.58172 0 8 0H145C149.418 0 153 3.58172 153 8V20C153 24.4183 149.418 28 145 28H8C3.58172 28 0 24.4183 0 20V8Z" fill="#171717"/>
<path d="M8.67614 9.91193V8.81818H16.3125V9.91193H13.1108V19H11.8778V9.91193H8.67614ZM17.3333 19V11.3636H18.4668V12.517H18.5464C18.6856 12.1392 18.9375 11.8326 19.3021 11.5973C19.6666 11.362 20.0776 11.2443 20.535 11.2443C20.6212 11.2443 20.7289 11.246 20.8582 11.2493C20.9874 11.2526 21.0852 11.2576 21.1515 11.2642V12.4574C21.1117 12.4474 21.0206 12.4325 20.8781 12.4126C20.7389 12.3894 20.5914 12.3778 20.4356 12.3778C20.0644 12.3778 19.7329 12.4557 19.4413 12.6115C19.1529 12.764 18.9242 12.9761 18.7552 13.2479C18.5895 13.5163 18.5066 13.8229 18.5066 14.1676V19H17.3333ZM23.6004 21.8636C23.4015 21.8636 23.2242 21.8471 23.0684 21.8139C22.9127 21.7841 22.805 21.7543 22.7453 21.7244L23.0436 20.6903C23.3286 20.7633 23.5805 20.7898 23.7993 20.7699C24.018 20.75 24.2119 20.6522 24.3809 20.4766C24.5533 20.3042 24.7107 20.0241 24.8532 19.6364L25.072 19.0398L22.2481 11.3636H23.5209L25.6288 17.4489H25.7084L27.8163 11.3636H29.089L25.8476 20.1136C25.7017 20.508 25.5211 20.8345 25.3057 21.093C25.0902 21.3549 24.84 21.5488 24.555 21.6747C24.2732 21.8007 23.955 21.8636 23.6004 21.8636ZM37.8175 19.1591C37.1281 19.1591 36.5232 18.995 36.0028 18.6669C35.4858 18.3388 35.0814 17.8797 34.7898 17.2898C34.5014 16.6998 34.3572 16.0104 34.3572 15.2216C34.3572 14.4261 34.5014 13.7318 34.7898 13.1385C35.0814 12.5452 35.4858 12.0845 36.0028 11.7564C36.5232 11.4283 37.1281 11.2642 37.8175 11.2642C38.5069 11.2642 39.1101 11.4283 39.6271 11.7564C40.1475 12.0845 40.5518 12.5452 40.8402 13.1385C41.1319 13.7318 41.2777 14.4261 41.2777 15.2216C41.2777 16.0104 41.1319 16.6998 40.8402 17.2898C40.5518 17.8797 40.1475 18.3388 39.6271 18.6669C39.1101 18.995 38.5069 19.1591 37.8175 19.1591ZM37.8175 18.1051C38.3411 18.1051 38.772 17.9709 39.1101 17.7024C39.4481 17.4339 39.6984 17.081 39.8608 16.6435C40.0232 16.206 40.1044 15.732 40.1044 15.2216C40.1044 14.7112 40.0232 14.2356 39.8608 13.7947C39.6984 13.3539 39.4481 12.9976 39.1101 12.7259C38.772 12.4541 38.3411 12.3182 37.8175 12.3182C37.2938 12.3182 36.8629 12.4541 36.5249 12.7259C36.1868 12.9976 35.9365 13.3539 35.7741 13.7947C35.6117 14.2356 35.5305 14.7112 35.5305 15.2216C35.5305 15.732 35.6117 16.206 35.7741 16.6435C35.9365 17.081 36.1868 17.4339 36.5249 17.7024C36.8629 17.9709 37.2938 18.1051 37.8175 18.1051ZM44.312 14.4062V19H43.1387V11.3636H44.2722V12.5568H44.3717C44.5506 12.169 44.8224 11.8575 45.187 11.6222C45.5516 11.3835 46.0222 11.2642 46.5989 11.2642C47.116 11.2642 47.5684 11.3703 47.9562 11.5824C48.344 11.7912 48.6456 12.1094 48.861 12.5369C49.0764 12.9612 49.1842 13.4981 49.1842 14.1477V19H48.0109V14.2273C48.0109 13.6274 47.8551 13.16 47.5435 12.8253C47.232 12.4872 46.8044 12.3182 46.2609 12.3182C45.8863 12.3182 45.5516 12.3994 45.2566 12.5618C44.9649 12.7242 44.7346 12.9612 44.5656 13.2727C44.3965 13.5843 44.312 13.9621 44.312 14.4062ZM55.5648 19V8.81818H61.6699V9.91193H56.7977V13.3523H61.2125V14.446H56.7977V19H55.5648ZM63.6104 19V11.3636H64.744V12.517H64.8235C64.9627 12.1392 65.2146 11.8326 65.5792 11.5973C65.9438 11.362 66.3547 11.2443 66.8121 11.2443C66.8983 11.2443 67.006 11.246 67.1353 11.2493C67.2645 11.2526 67.3623 11.2576 67.4286 11.2642V12.4574C67.3888 12.4474 67.2977 12.4325 67.1552 12.4126C67.016 12.3894 66.8685 12.3778 66.7127 12.3778C66.3415 12.3778 66.01 12.4557 65.7184 12.6115C65.43 12.764 65.2013 12.9761 65.0323 13.2479C64.8666 13.5163 64.7837 13.8229 64.7837 14.1676V19H63.6104ZM71.1366 19.179C70.6527 19.179 70.2135 19.0878 69.8191 18.9055C69.4247 18.7199 69.1115 18.4531 68.8795 18.1051C68.6475 17.7538 68.5315 17.3295 68.5315 16.8324C68.5315 16.3949 68.6176 16.0402 68.79 15.7685C68.9623 15.4934 69.1927 15.2779 69.481 15.1222C69.7694 14.9664 70.0876 14.8504 70.4356 14.7741C70.7869 14.6946 71.1399 14.6316 71.4945 14.5852C71.9585 14.5256 72.3347 14.4808 72.6231 14.451C72.9147 14.4179 73.1269 14.3632 73.2594 14.2869C73.3953 14.2107 73.4633 14.0781 73.4633 13.8892V13.8494C73.4633 13.3589 73.329 12.9777 73.0606 12.706C72.7954 12.4342 72.3927 12.2983 71.8525 12.2983C71.2923 12.2983 70.8532 12.4209 70.535 12.6662C70.2168 12.9115 69.9931 13.1733 69.8638 13.4517L68.7502 13.054C68.9491 12.59 69.2142 12.2287 69.5457 11.9702C69.8804 11.7083 70.245 11.526 70.6394 11.4233C71.0371 11.3172 71.4282 11.2642 71.8127 11.2642C72.058 11.2642 72.3397 11.294 72.6579 11.3537C72.9794 11.41 73.2893 11.5277 73.5876 11.7067C73.8892 11.8857 74.1394 12.1558 74.3383 12.517C74.5371 12.8783 74.6366 13.3622 74.6366 13.9688V19H73.4633V17.9659H73.4036C73.3241 18.1316 73.1915 18.3089 73.0059 18.4979C72.8203 18.6868 72.5734 18.8475 72.2651 18.9801C71.9569 19.1127 71.5807 19.179 71.1366 19.179ZM71.3155 18.125C71.7796 18.125 72.1707 18.0339 72.4888 17.8516C72.8103 17.6693 73.0523 17.4339 73.2147 17.1456C73.3804 16.8572 73.4633 16.554 73.4633 16.2358V15.1619C73.4136 15.2216 73.3042 15.2763 73.1352 15.326C72.9694 15.3724 72.7772 15.4138 72.5584 15.4503C72.343 15.4834 72.1325 15.5133 71.9271 15.5398C71.7249 15.563 71.5608 15.5829 71.4349 15.5994C71.1299 15.6392 70.8449 15.7038 70.5798 15.7933C70.3179 15.8795 70.1058 16.0104 69.9434 16.1861C69.7843 16.3584 69.7048 16.5937 69.7048 16.892C69.7048 17.2997 69.8556 17.608 70.1572 17.8168C70.4621 18.0223 70.8482 18.125 71.3155 18.125ZM76.8481 21.8636V11.3636H77.9816V12.5767H78.1208C78.207 12.4441 78.3263 12.2751 78.4788 12.0696C78.6345 11.8608 78.8566 11.6752 79.145 11.5128C79.4366 11.3471 79.831 11.2642 80.3282 11.2642C80.9712 11.2642 81.5379 11.425 82.0285 11.7464C82.519 12.0679 82.9018 12.5237 83.1769 13.1136C83.452 13.7036 83.5896 14.3996 83.5896 15.2017C83.5896 16.0104 83.452 16.7114 83.1769 17.3047C82.9018 17.8946 82.5207 18.352 82.0334 18.6768C81.5462 18.9983 80.9844 19.1591 80.3481 19.1591C79.8575 19.1591 79.4648 19.0779 79.1698 18.9155C78.8748 18.7498 78.6478 18.5625 78.4887 18.3537C78.3296 18.1416 78.207 17.9659 78.1208 17.8267H78.0214V21.8636H76.8481ZM78.0015 15.1818C78.0015 15.7585 78.086 16.2673 78.255 16.7081C78.4241 17.1456 78.671 17.4886 78.9958 17.7372C79.3206 17.9825 79.7183 18.1051 80.189 18.1051C80.6795 18.1051 81.0888 17.9759 81.417 17.7173C81.7484 17.4555 81.997 17.1042 82.1627 16.6634C82.3317 16.2192 82.4163 15.7254 82.4163 15.1818C82.4163 14.6449 82.3334 14.161 82.1677 13.7301C82.0053 13.2959 81.7584 12.9529 81.4269 12.701C81.0988 12.4458 80.6861 12.3182 80.189 12.3182C79.7117 12.3182 79.3107 12.4392 78.9859 12.6811C78.6611 12.9197 78.4158 13.2545 78.2501 13.6854C78.0843 14.1129 78.0015 14.6117 78.0015 15.1818ZM85.4493 21.8636V11.3636H86.5829V12.5767H86.7221C86.8082 12.4441 86.9275 12.2751 87.08 12.0696C87.2358 11.8608 87.4579 11.6752 87.7462 11.5128C88.0379 11.3471 88.4323 11.2642 88.9294 11.2642C89.5724 11.2642 90.1392 11.425 90.6297 11.7464C91.1203 12.0679 91.5031 12.5237 91.7782 13.1136C92.0533 13.7036 92.1908 14.3996 92.1908 15.2017C92.1908 16.0104 92.0533 16.7114 91.7782 17.3047C91.5031 17.8946 91.1219 18.352 90.6347 18.6768C90.1475 18.9983 89.5857 19.1591 88.9493 19.1591C88.4588 19.1591 88.066 19.0779 87.7711 18.9155C87.4761 18.7498 87.249 18.5625 87.09 18.3537C86.9309 18.1416 86.8082 17.9659 86.7221 17.8267H86.6226V21.8636H85.4493ZM86.6027 15.1818C86.6027 15.7585 86.6873 16.2673 86.8563 16.7081C87.0253 17.1456 87.2722 17.4886 87.5971 17.7372C87.9219 17.9825 88.3196 18.1051 88.7902 18.1051C89.2808 18.1051 89.6901 17.9759 90.0182 17.7173C90.3497 17.4555 90.5982 17.1042 90.764 16.6634C90.933 16.2192 91.0175 15.7254 91.0175 15.1818C91.0175 14.6449 90.9347 14.161 90.7689 13.7301C90.6065 13.2959 90.3596 12.9529 90.0282 12.701C89.7 12.4458 89.2874 12.3182 88.7902 12.3182C88.313 12.3182 87.9119 12.4392 87.5871 12.6811C87.2623 12.9197 87.017 13.2545 86.8513 13.6854C86.6856 14.1129 86.6027 14.6117 86.6027 15.1818ZM97.2523 19.1591C96.5165 19.1591 95.8818 18.9967 95.3482 18.6719C94.8179 18.3438 94.4085 17.8864 94.1202 17.2997C93.8351 16.7098 93.6926 16.0237 93.6926 15.2415C93.6926 14.4593 93.8351 13.7699 94.1202 13.1733C94.4085 12.5734 94.8096 12.1061 95.3233 11.7713C95.8404 11.4332 96.4436 11.2642 97.133 11.2642C97.5307 11.2642 97.9234 11.3305 98.3112 11.4631C98.699 11.5956 99.052 11.8111 99.3702 12.1094C99.6884 12.4044 99.9419 12.7955 100.131 13.2827C100.32 13.7699 100.414 14.3698 100.414 15.0824V15.5795H94.5279V14.5653H99.221C99.221 14.1345 99.1349 13.75 98.9625 13.4119C98.7935 13.0739 98.5515 12.8071 98.2367 12.6115C97.9251 12.416 97.5572 12.3182 97.133 12.3182C96.6656 12.3182 96.2613 12.4342 95.9199 12.6662C95.5818 12.8949 95.3216 13.1932 95.1394 13.5611C94.9571 13.929 94.8659 14.3234 94.8659 14.7443V15.4205C94.8659 15.9972 94.9654 16.486 95.1642 16.8871C95.3664 17.2848 95.6465 17.5881 96.0044 17.7969C96.3624 18.0024 96.7783 18.1051 97.2523 18.1051C97.5605 18.1051 97.8389 18.062 98.0875 17.9759C98.3394 17.8864 98.5565 17.7538 98.7388 17.5781C98.9211 17.3991 99.0619 17.1771 99.1614 16.9119L100.295 17.2301C100.176 17.6146 99.9751 17.9527 99.6933 18.2443C99.4116 18.5327 99.0636 18.758 98.6493 18.9205C98.235 19.0795 97.7693 19.1591 97.2523 19.1591ZM114.629 12H113.396C113.323 11.6454 113.195 11.3338 113.013 11.0653C112.834 10.7969 112.615 10.5715 112.357 10.3892C112.102 10.2036 111.818 10.0644 111.507 9.97159C111.195 9.87879 110.87 9.83239 110.532 9.83239C109.916 9.83239 109.357 9.98816 108.857 10.2997C108.36 10.6113 107.964 11.0703 107.669 11.6768C107.377 12.2834 107.231 13.0275 107.231 13.9091C107.231 14.7907 107.377 15.5348 107.669 16.1413C107.964 16.7479 108.36 17.2069 108.857 17.5185C109.357 17.83 109.916 17.9858 110.532 17.9858C110.87 17.9858 111.195 17.9394 111.507 17.8466C111.818 17.7538 112.102 17.6162 112.357 17.4339C112.615 17.2483 112.834 17.0213 113.013 16.7528C113.195 16.4811 113.323 16.1695 113.396 15.8182H114.629C114.536 16.3385 114.367 16.8042 114.122 17.2152C113.876 17.6262 113.572 17.9759 113.207 18.2642C112.842 18.5492 112.433 18.7663 111.979 18.9155C111.528 19.0646 111.046 19.1392 110.532 19.1392C109.664 19.1392 108.892 18.9271 108.215 18.5028C107.539 18.0786 107.007 17.4754 106.62 16.6932C106.232 15.911 106.038 14.983 106.038 13.9091C106.038 12.8352 106.232 11.9072 106.62 11.125C107.007 10.3428 107.539 9.73958 108.215 9.31534C108.892 8.8911 109.664 8.67898 110.532 8.67898C111.046 8.67898 111.528 8.75355 111.979 8.9027C112.433 9.05185 112.842 9.2706 113.207 9.55895C113.572 9.84399 113.876 10.192 114.122 10.603C114.367 11.0107 114.536 11.4763 114.629 12ZM117.705 8.81818V19H116.532V8.81818H117.705ZM123.027 19.1591C122.337 19.1591 121.732 18.995 121.212 18.6669C120.695 18.3388 120.291 17.8797 119.999 17.2898C119.711 16.6998 119.566 16.0104 119.566 15.2216C119.566 14.4261 119.711 13.7318 119.999 13.1385C120.291 12.5452 120.695 12.0845 121.212 11.7564C121.732 11.4283 122.337 11.2642 123.027 11.2642C123.716 11.2642 124.319 11.4283 124.836 11.7564C125.357 12.0845 125.761 12.5452 126.049 13.1385C126.341 13.7318 126.487 14.4261 126.487 15.2216C126.487 16.0104 126.341 16.6998 126.049 17.2898C125.761 17.8797 125.357 18.3388 124.836 18.6669C124.319 18.995 123.716 19.1591 123.027 19.1591ZM123.027 18.1051C123.55 18.1051 123.981 17.9709 124.319 17.7024C124.657 17.4339 124.908 17.081 125.07 16.6435C125.232 16.206 125.314 15.732 125.314 15.2216C125.314 14.7112 125.232 14.2356 125.07 13.7947C124.908 13.3539 124.657 12.9976 124.319 12.7259C123.981 12.4541 123.55 12.3182 123.027 12.3182C122.503 12.3182 122.072 12.4541 121.734 12.7259C121.396 12.9976 121.146 13.3539 120.983 13.7947C120.821 14.2356 120.74 14.7112 120.74 15.2216C120.74 15.732 120.821 16.206 120.983 16.6435C121.146 17.081 121.396 17.4339 121.734 17.7024C122.072 17.9709 122.503 18.1051 123.027 18.1051ZM133.16 15.8778V11.3636H134.334V19H133.16V17.7074H133.081C132.902 18.0952 132.623 18.425 132.246 18.6967C131.868 18.9652 131.39 19.0994 130.814 19.0994C130.336 19.0994 129.912 18.995 129.541 18.7862C129.17 18.5741 128.878 18.2559 128.666 17.8317C128.454 17.4041 128.348 16.8655 128.348 16.2159V11.3636H129.521V16.1364C129.521 16.6932 129.677 17.1373 129.988 17.4688C130.303 17.8002 130.704 17.9659 131.192 17.9659C131.483 17.9659 131.78 17.8913 132.082 17.7422C132.386 17.593 132.642 17.3643 132.847 17.0561C133.056 16.7479 133.16 16.3551 133.16 15.8778ZM139.436 19.1591C138.8 19.1591 138.238 18.9983 137.751 18.6768C137.264 18.352 136.882 17.8946 136.607 17.3047C136.332 16.7114 136.195 16.0104 136.195 15.2017C136.195 14.3996 136.332 13.7036 136.607 13.1136C136.882 12.5237 137.265 12.0679 137.756 11.7464C138.246 11.425 138.813 11.2642 139.456 11.2642C139.953 11.2642 140.346 11.3471 140.634 11.5128C140.926 11.6752 141.148 11.8608 141.3 12.0696C141.456 12.2751 141.577 12.4441 141.663 12.5767H141.763V8.81818H142.936V19H141.803V17.8267H141.663C141.577 17.9659 141.455 18.1416 141.296 18.3537C141.136 18.5625 140.909 18.7498 140.614 18.9155C140.319 19.0779 139.927 19.1591 139.436 19.1591ZM139.595 18.1051C140.066 18.1051 140.464 17.9825 140.788 17.7372C141.113 17.4886 141.36 17.1456 141.529 16.7081C141.698 16.2673 141.783 15.7585 141.783 15.1818C141.783 14.6117 141.7 14.1129 141.534 13.6854C141.368 13.2545 141.123 12.9197 140.798 12.6811C140.474 12.4392 140.073 12.3182 139.595 12.3182C139.098 12.3182 138.684 12.4458 138.352 12.701C138.024 12.9529 137.777 13.2959 137.612 13.7301C137.449 14.161 137.368 14.6449 137.368 15.1818C137.368 15.7254 137.451 16.2192 137.617 16.6634C137.786 17.1042 138.034 17.4555 138.362 17.7173C138.694 17.9759 139.105 18.1051 139.595 18.1051Z" fill="white"/>
</svg>
