<svg width="118" height="118" viewBox="0 0 118 118" fill="none" xmlns="http://www.w3.org/2000/svg">
<g clip-path="url(#clip0_0_18)">
<path d="M93.9278 0H23.1013C10.3428 0 0 10.3428 0 23.1013V93.9278C0 106.686 10.3428 117.029 23.1013 117.029H93.9278C106.686 117.029 117.029 106.686 117.029 93.9278V23.1013C117.029 10.3428 106.686 0 93.9278 0Z" fill="#1C2925"/>
<path d="M63.7911 37.8546C63.7911 32.0793 59.1184 27.354 53.2905 27.354H22.2613V37.8546H53.238V79.1744H32.7619V49.6678H22.2613V79.227C22.2613 85.0023 26.934 89.7275 32.7619 89.7275H84.2673C90.0426 89.7275 94.7679 85.0548 94.7679 79.227V48.3552C94.7679 42.5799 90.0951 37.8546 84.2673 37.8546H63.7386H63.7911ZM84.2673 79.227H63.7911V48.3552H84.2673V79.227Z" fill="#FFDE32"/>
</g>
<defs>
<clipPath id="clip0_0_18">
<rect width="117.029" height="117.029" fill="white"/>
</clipPath>
</defs>
</svg>
