<svg width="171" height="38" viewBox="0 0 171 38" fill="none" xmlns="http://www.w3.org/2000/svg">
<g clip-path="url(#clip0_5821_21477)">
<path d="M30.3345 0.148438H7.46069C3.34026 0.148438 0 3.4887 0 7.60913V30.4829C0 34.6033 3.34026 37.9436 7.46069 37.9436H30.3345C34.4549 37.9436 37.7952 34.6033 37.7952 30.4829V7.60913C37.7952 3.4887 34.4549 0.148438 30.3345 0.148438Z" fill="#1C2925"/>
<path d="M20.6037 12.3717C20.6037 10.5065 19.0946 8.98047 17.2125 8.98047H7.19141V12.3717H17.1955V25.7162H10.5826V16.1868H7.19141V25.7331C7.19141 27.5983 8.7005 29.1243 10.5826 29.1243H27.2166C29.0817 29.1243 30.6078 27.6152 30.6078 25.7331V15.7629C30.6078 13.8977 29.0987 12.3717 27.2166 12.3717H20.5867H20.6037ZM27.2166 25.7331H20.6037V15.7629H27.2166V25.7331Z" fill="#FFDE32"/>
</g>
<path d="M56.191 7.27415V30.5469H51.2705V7.27415H56.191ZM64.3493 20.456V30.5469H59.5084V13.0923H64.122V16.1719H64.3266C64.7129 15.1567 65.3607 14.3537 66.2697 13.7628C67.1788 13.1643 68.2811 12.8651 69.5766 12.8651C70.7887 12.8651 71.8455 13.1302 72.747 13.6605C73.6485 14.1908 74.3493 14.9484 74.8493 15.9332C75.3493 16.9105 75.5993 18.0772 75.5993 19.4332V30.5469H70.7584V20.2969C70.766 19.2287 70.4932 18.3954 69.9402 17.7969C69.3872 17.1908 68.6258 16.8878 67.6561 16.8878C67.0046 16.8878 66.4288 17.0279 65.9288 17.3082C65.4364 17.5885 65.05 17.9976 64.7697 18.5355C64.497 19.0658 64.3569 19.706 64.3493 20.456ZM93.2974 18.0696L88.8655 18.3423C88.7898 17.9635 88.6269 17.6226 88.3769 17.3196C88.1269 17.009 87.7974 16.7628 87.3883 16.581C86.9868 16.3916 86.5057 16.2969 85.9451 16.2969C85.1951 16.2969 84.5625 16.456 84.0474 16.7741C83.5322 17.0848 83.2746 17.5014 83.2746 18.0241C83.2746 18.4408 83.4413 18.7931 83.7746 19.081C84.108 19.3688 84.6799 19.5999 85.4905 19.7741L88.6496 20.4105C90.3466 20.759 91.6118 21.3196 92.4451 22.0923C93.2784 22.8651 93.6951 23.8802 93.6951 25.1378C93.6951 26.2817 93.358 27.2855 92.6837 28.1491C92.0171 29.0128 91.1004 29.687 89.9337 30.1719C88.7746 30.6491 87.4375 30.8878 85.9224 30.8878C83.6118 30.8878 81.7708 30.4067 80.3996 29.4446C79.036 28.4749 78.2368 27.1567 78.0019 25.4901L82.7633 25.2401C82.9072 25.9446 83.2557 26.4825 83.8087 26.8537C84.3618 27.2173 85.0701 27.3991 85.9337 27.3991C86.7822 27.3991 87.464 27.2363 87.9792 26.9105C88.5019 26.5772 88.7671 26.1491 88.7746 25.6264C88.7671 25.187 88.5815 24.8272 88.2178 24.5469C87.8542 24.259 87.2936 24.0393 86.536 23.8878L83.5133 23.2855C81.8087 22.9446 80.5398 22.3537 79.7064 21.5128C78.8807 20.6719 78.4678 19.5999 78.4678 18.2969C78.4678 17.1757 78.7708 16.2098 79.3769 15.3991C79.9905 14.5885 80.8504 13.9635 81.9564 13.5241C83.0701 13.0848 84.3731 12.8651 85.8655 12.8651C88.0701 12.8651 89.8049 13.331 91.0701 14.2628C92.3428 15.1946 93.0852 16.4635 93.2974 18.0696ZM96.1034 30.5469V13.0923H100.944V30.5469H96.1034ZM98.5352 10.8423C97.8155 10.8423 97.1981 10.6037 96.6829 10.1264C96.1754 9.64157 95.9216 9.06203 95.9216 8.38778C95.9216 7.72112 96.1754 7.14915 96.6829 6.67188C97.1981 6.18703 97.8155 5.9446 98.5352 5.9446C99.2549 5.9446 99.8685 6.18703 100.376 6.67188C100.891 7.14915 101.149 7.72112 101.149 8.38778C101.149 9.06203 100.891 9.64157 100.376 10.1264C99.8685 10.6037 99.2549 10.8423 98.5352 10.8423ZM112.046 37.456C110.478 37.456 109.133 37.2401 108.012 36.8082C106.898 36.384 106.012 35.8045 105.353 35.0696C104.693 34.3348 104.265 33.509 104.068 32.5923L108.546 31.9901C108.682 32.3385 108.898 32.6643 109.193 32.9673C109.489 33.2704 109.879 33.5128 110.364 33.6946C110.856 33.884 111.455 33.9787 112.159 33.9787C113.212 33.9787 114.08 33.7211 114.762 33.206C115.451 32.6984 115.796 31.8461 115.796 30.6491V27.456H115.591C115.379 27.9408 115.061 28.3991 114.637 28.831C114.212 29.2628 113.667 29.6151 113 29.8878C112.334 30.1605 111.538 30.2969 110.614 30.2969C109.303 30.2969 108.11 29.9938 107.034 29.3878C105.966 28.7741 105.114 27.8385 104.478 26.581C103.849 25.3158 103.534 23.7173 103.534 21.7855C103.534 19.8082 103.856 18.1567 104.5 16.831C105.144 15.5052 106 14.5128 107.068 13.8537C108.144 13.1946 109.322 12.8651 110.603 12.8651C111.58 12.8651 112.398 13.0317 113.057 13.3651C113.716 13.6908 114.247 14.0999 114.648 14.5923C115.057 15.0772 115.372 15.5545 115.591 16.0241H115.773V13.0923H120.58V30.7173C120.58 32.2022 120.216 33.4446 119.489 34.4446C118.762 35.4446 117.754 36.1946 116.466 36.6946C115.186 37.2022 113.712 37.456 112.046 37.456ZM112.148 26.6605C112.928 26.6605 113.587 26.4673 114.125 26.081C114.671 25.687 115.087 25.1264 115.375 24.3991C115.671 23.6643 115.818 22.7855 115.818 21.7628C115.818 20.7401 115.675 19.8537 115.387 19.1037C115.099 18.3461 114.682 17.759 114.137 17.3423C113.591 16.9257 112.928 16.7173 112.148 16.7173C111.353 16.7173 110.682 16.9332 110.137 17.3651C109.591 17.7893 109.178 18.3802 108.898 19.1378C108.618 19.8954 108.478 20.7704 108.478 21.7628C108.478 22.7704 108.618 23.6416 108.898 24.3764C109.186 25.1037 109.599 25.6681 110.137 26.0696C110.682 26.4635 111.353 26.6605 112.148 26.6605ZM128.633 20.456V30.5469H123.792V7.27415H128.497V16.1719H128.701C129.095 15.1416 129.732 14.3348 130.61 13.7514C131.489 13.1605 132.591 12.8651 133.917 12.8651C135.129 12.8651 136.186 13.1302 137.088 13.6605C137.997 14.1832 138.701 14.937 139.201 15.9219C139.709 16.8991 139.959 18.0696 139.951 19.4332V30.5469H135.11V20.2969C135.118 19.2211 134.845 18.384 134.292 17.7855C133.747 17.187 132.982 16.8878 131.997 16.8878C131.338 16.8878 130.754 17.0279 130.247 17.3082C129.747 17.5885 129.353 17.9976 129.065 18.5355C128.785 19.0658 128.641 19.706 128.633 20.456ZM152.405 13.0923V16.7287H141.894V13.0923H152.405ZM144.28 8.91051H149.121V25.1832C149.121 25.6302 149.189 25.9787 149.325 26.2287C149.462 26.4711 149.651 26.6416 149.894 26.7401C150.144 26.8385 150.431 26.8878 150.757 26.8878C150.985 26.8878 151.212 26.8688 151.439 26.831C151.666 26.7855 151.841 26.7514 151.962 26.7287L152.723 30.331C152.481 30.4067 152.14 30.4938 151.7 30.5923C151.261 30.6984 150.727 30.7628 150.098 30.7855C148.931 30.831 147.909 30.6757 147.03 30.3196C146.159 29.9635 145.481 29.4105 144.996 28.6605C144.511 27.9105 144.272 26.9635 144.28 25.8196V8.91051ZM169.222 18.0696L164.791 18.3423C164.715 17.9635 164.552 17.6226 164.302 17.3196C164.052 17.009 163.722 16.7628 163.313 16.581C162.912 16.3916 162.431 16.2969 161.87 16.2969C161.12 16.2969 160.488 16.456 159.972 16.7741C159.457 17.0848 159.2 17.5014 159.2 18.0241C159.2 18.4408 159.366 18.7931 159.7 19.081C160.033 19.3688 160.605 19.5999 161.416 19.7741L164.575 20.4105C166.272 20.759 167.537 21.3196 168.37 22.0923C169.203 22.8651 169.62 23.8802 169.62 25.1378C169.62 26.2817 169.283 27.2855 168.609 28.1491C167.942 29.0128 167.025 29.687 165.859 30.1719C164.7 30.6491 163.363 30.8878 161.847 30.8878C159.537 30.8878 157.696 30.4067 156.325 29.4446C154.961 28.4749 154.162 27.1567 153.927 25.4901L158.688 25.2401C158.832 25.9446 159.181 26.4825 159.734 26.8537C160.287 27.2173 160.995 27.3991 161.859 27.3991C162.707 27.3991 163.389 27.2363 163.904 26.9105C164.427 26.5772 164.692 26.1491 164.7 25.6264C164.692 25.187 164.506 24.8272 164.143 24.5469C163.779 24.259 163.219 24.0393 162.461 23.8878L159.438 23.2855C157.734 22.9446 156.465 22.3537 155.631 21.5128C154.806 20.6719 154.393 19.5999 154.393 18.2969C154.393 17.1757 154.696 16.2098 155.302 15.3991C155.916 14.5885 156.775 13.9635 157.881 13.5241C158.995 13.0848 160.298 12.8651 161.791 12.8651C163.995 12.8651 165.73 13.331 166.995 14.2628C168.268 15.1946 169.01 16.4635 169.222 18.0696Z" fill="black"/>
<defs>
<clipPath id="clip0_5821_21477">
<rect width="37.7952" height="37.7952" fill="white" transform="translate(0 0.148438)"/>
</clipPath>
</defs>
</svg>
