<svg width="406" height="100" viewBox="0 0 406 100" fill="none" xmlns="http://www.w3.org/2000/svg">
<rect width="100" height="100" rx="16" fill="#1E2022"/>
<path d="M80.5 50H68.3L59.15 78L40.85 22L31.7 50H19.5" stroke="white" stroke-width="5" stroke-linecap="round" stroke-linejoin="round"/>
<path d="M125.226 75V36.8182H135.815V75H125.226ZM130.545 31.8963C128.971 31.8963 127.621 31.3743 126.494 30.3303C125.383 29.2696 124.828 28.0019 124.828 26.527C124.828 25.0687 125.383 23.8175 126.494 22.7734C127.621 21.7128 128.971 21.1825 130.545 21.1825C132.12 21.1825 133.462 21.7128 134.572 22.7734C135.699 23.8175 136.263 25.0687 136.263 26.527C136.263 28.0019 135.699 29.2696 134.572 30.3303C133.462 31.3743 132.12 31.8963 130.545 31.8963ZM154.888 52.9261V75H144.298V36.8182H154.39V43.5547H154.838C155.683 41.334 157.1 39.5774 159.089 38.2848C161.077 36.9756 163.488 36.321 166.322 36.321C168.974 36.321 171.286 36.901 173.258 38.0611C175.23 39.2211 176.763 40.8783 177.856 43.0327C178.95 45.1705 179.497 47.7225 179.497 50.6889V75H168.907V52.5781C168.924 50.2415 168.327 48.4186 167.118 47.1094C165.908 45.7836 164.242 45.1207 162.121 45.1207C160.696 45.1207 159.437 45.4273 158.343 46.0405C157.266 46.6536 156.421 47.5485 155.807 48.7251C155.211 49.8852 154.904 51.2855 154.888 52.9261ZM219.612 47.706L209.917 48.3026C209.751 47.474 209.395 46.7282 208.848 46.0653C208.301 45.3859 207.58 44.8473 206.685 44.4496C205.807 44.0353 204.755 43.8281 203.528 43.8281C201.888 43.8281 200.504 44.1761 199.377 44.8722C198.25 45.5516 197.687 46.4631 197.687 47.6065C197.687 48.518 198.051 49.2886 198.781 49.9183C199.51 50.5481 200.761 51.0535 202.534 51.4347L209.445 52.8267C213.157 53.589 215.924 54.8153 217.747 56.5057C219.57 58.196 220.482 60.4167 220.482 63.1676C220.482 65.67 219.744 67.8658 218.269 69.755C216.811 71.6442 214.806 73.1191 212.254 74.1797C209.718 75.2237 206.793 75.7457 203.479 75.7457C198.424 75.7457 194.397 74.6934 191.398 72.5888C188.415 70.4676 186.666 67.584 186.153 63.9382L196.568 63.3913C196.883 64.9325 197.645 66.1091 198.855 66.9212C200.065 67.7166 201.614 68.1143 203.504 68.1143C205.36 68.1143 206.851 67.758 207.978 67.0455C209.121 66.3163 209.701 65.38 209.718 64.2365C209.701 63.2753 209.295 62.4882 208.5 61.875C207.705 61.2453 206.478 60.7647 204.821 60.4332L198.209 59.1158C194.48 58.37 191.704 57.0774 189.881 55.2379C188.075 53.3984 187.172 51.0535 187.172 48.2031C187.172 45.7505 187.835 43.6375 189.161 41.8643C190.503 40.0911 192.384 38.724 194.803 37.7628C197.239 36.8016 200.09 36.321 203.354 36.321C208.177 36.321 211.972 37.3402 214.739 39.3785C217.523 41.4169 219.147 44.1927 219.612 47.706ZM227.15 75V36.8182H237.739V75H227.15ZM232.469 31.8963C230.895 31.8963 229.544 31.3743 228.417 30.3303C227.307 29.2696 226.752 28.0019 226.752 26.527C226.752 25.0687 227.307 23.8175 228.417 22.7734C229.544 21.7128 230.895 21.1825 232.469 21.1825C234.044 21.1825 235.386 21.7128 236.496 22.7734C237.623 23.8175 238.187 25.0687 238.187 26.527C238.187 28.0019 237.623 29.2696 236.496 30.3303C235.386 31.3743 234.044 31.8963 232.469 31.8963ZM263.424 90.1136C259.993 90.1136 257.052 89.6413 254.599 88.6967C252.163 87.7687 250.224 86.5009 248.782 84.8935C247.341 83.286 246.404 81.4796 245.973 79.4744L255.767 78.157C256.066 78.9193 256.538 79.6319 257.184 80.2947C257.831 80.9576 258.684 81.4879 259.745 81.8857C260.822 82.3 262.131 82.5071 263.672 82.5071C265.976 82.5071 267.873 81.9437 269.365 80.8168C270.873 79.7064 271.627 77.8421 271.627 75.2237V68.2386H271.179C270.715 69.2992 270.019 70.3018 269.091 71.2464C268.163 72.1911 266.97 72.9616 265.512 73.5582C264.053 74.1548 262.313 74.4531 260.292 74.4531C257.425 74.4531 254.815 73.7902 252.461 72.4645C250.125 71.1222 248.26 69.0755 246.868 66.3246C245.493 63.5571 244.805 60.0604 244.805 55.8345C244.805 51.5092 245.509 47.8965 246.918 44.9964C248.327 42.0964 250.199 39.9254 252.536 38.4837C254.889 37.0419 257.466 36.321 260.267 36.321C262.404 36.321 264.194 36.6856 265.636 37.4148C267.078 38.1274 268.238 39.0223 269.116 40.0994C270.011 41.16 270.699 42.2041 271.179 43.2315H271.577V36.8182H282.092V75.3729C282.092 78.621 281.297 81.3388 279.706 83.5263C278.115 85.7138 275.911 87.3544 273.093 88.4482C270.293 89.5585 267.069 90.1136 263.424 90.1136ZM263.647 66.4986C265.354 66.4986 266.796 66.076 267.973 65.2308C269.166 64.3691 270.077 63.1428 270.707 61.5518C271.353 59.9444 271.676 58.022 271.676 55.7848C271.676 53.5476 271.362 51.6087 270.732 49.968C270.102 48.3108 269.191 47.0265 267.998 46.1151C266.804 45.2036 265.354 44.7479 263.647 44.7479C261.907 44.7479 260.441 45.2202 259.248 46.1648C258.054 47.0928 257.151 48.3854 256.538 50.0426C255.925 51.6998 255.618 53.6139 255.618 55.7848C255.618 57.9889 255.925 59.8946 256.538 61.5021C257.168 63.093 258.071 64.3277 259.248 65.206C260.441 66.0677 261.907 66.4986 263.647 66.4986ZM301.108 52.9261V75H290.519V24.0909H300.81V43.5547H301.257C302.119 41.3009 303.511 39.536 305.434 38.2599C307.356 36.9673 309.767 36.321 312.667 36.321C315.319 36.321 317.631 36.901 319.603 38.0611C321.591 39.2045 323.132 40.8535 324.226 43.0078C325.337 45.1456 325.883 47.706 325.867 50.6889V75H315.277V52.5781C315.294 50.2249 314.697 48.3937 313.488 47.0845C312.294 45.7753 310.621 45.1207 308.466 45.1207C307.025 45.1207 305.748 45.4273 304.638 46.0405C303.544 46.6536 302.683 47.5485 302.053 48.7251C301.44 49.8852 301.125 51.2855 301.108 52.9261ZM354.509 36.8182V44.7727H331.516V36.8182H354.509ZM336.736 27.6705H347.325V63.267C347.325 64.2448 347.475 65.0071 347.773 65.554C348.071 66.0843 348.485 66.4571 349.016 66.6726C349.563 66.888 350.192 66.9957 350.905 66.9957C351.402 66.9957 351.899 66.9543 352.396 66.8714C352.894 66.772 353.275 66.6974 353.54 66.6477L355.205 74.5277C354.675 74.6934 353.929 74.884 352.968 75.0994C352.007 75.3314 350.839 75.4723 349.463 75.522C346.911 75.6214 344.674 75.2817 342.752 74.5028C340.846 73.724 339.363 72.5142 338.302 70.8736C337.241 69.233 336.719 67.1615 336.736 64.6591V27.6705ZM392.697 47.706L383.003 48.3026C382.837 47.474 382.481 46.7282 381.934 46.0653C381.387 45.3859 380.666 44.8473 379.771 44.4496C378.893 44.0353 377.841 43.8281 376.614 43.8281C374.974 43.8281 373.59 44.1761 372.463 44.8722C371.336 45.5516 370.773 46.4631 370.773 47.6065C370.773 48.518 371.137 49.2886 371.866 49.9183C372.596 50.5481 373.847 51.0535 375.62 51.4347L382.531 52.8267C386.243 53.589 389.01 54.8153 390.833 56.5057C392.656 58.196 393.567 60.4167 393.567 63.1676C393.567 65.67 392.83 67.8658 391.355 69.755C389.897 71.6442 387.892 73.1191 385.339 74.1797C382.804 75.2237 379.879 75.7457 376.565 75.7457C371.51 75.7457 367.483 74.6934 364.484 72.5888C361.501 70.4676 359.752 67.584 359.239 63.9382L369.654 63.3913C369.969 64.9325 370.731 66.1091 371.941 66.9212C373.151 67.7166 374.7 68.1143 376.589 68.1143C378.446 68.1143 379.937 67.758 381.064 67.0455C382.207 66.3163 382.787 65.38 382.804 64.2365C382.787 63.2753 382.381 62.4882 381.586 61.875C380.79 61.2453 379.564 60.7647 377.907 60.4332L371.295 59.1158C367.566 58.37 364.79 57.0774 362.967 55.2379C361.161 53.3984 360.258 51.0535 360.258 48.2031C360.258 45.7505 360.921 43.6375 362.246 41.8643C363.589 40.0911 365.47 38.724 367.889 37.7628C370.325 36.8016 373.176 36.321 376.44 36.321C381.263 36.321 385.058 37.3402 387.825 39.3785C390.609 41.4169 392.233 44.1927 392.697 47.706Z" fill="#0C172E"/>
</svg>
